<?xml version="1.0" encoding="UTF-8" standalone="no"?>
<svg width="24px" height="24px" viewBox="0 0 24 24" version="1.1" xmlns="http://www.w3.org/2000/svg" xmlns:xlink="http://www.w3.org/1999/xlink" xmlns:sketch="http://www.bohemiancoding.com/sketch/ns">
    <!-- Generator: Sketch 3.4.2 (15855) - http://www.bohemiancoding.com/sketch -->
    <title>24x24 over</title>
    <desc>Created with Sketch.</desc>
    <defs></defs>
    <g id="Page-1" stroke="none" stroke-width="1" fill="none" fill-rule="evenodd" sketch:type="MSPage">
        <g id="24x24-over" sketch:type="MSArtboardGroup">
            <g id="alert-over" sketch:type="MSLayerGroup">
                <path d="M23.2336696,12.0010435 C23.2336696,18.2034783 18.2041043,23.234087 11.9974957,23.234087 C5.79610435,23.234087 0.76653913,18.2034783 0.76653913,12.0010435 C0.76653913,5.79652174 5.79610435,0.765913043 11.9974957,0.765913043 C18.2041043,0.765913043 23.2336696,5.79652174 23.2336696,12.0010435" id="Fill-2" fill="#F16A70" sketch:type="MSShapeGroup"></path>
                <path d="M13.8628174,18.6674087 C13.8461217,19.1714087 13.6468174,19.5919304 13.2659478,19.9352348 C12.8861217,20.2764522 12.4447304,20.4381913 11.9344696,20.4194087 C11.4273391,20.4006261 10.9932522,20.2096696 10.6322087,19.8371478 C10.2753391,19.4677565 10.1167304,19.034713 10.135513,18.5296696 C10.1532522,18.0256696 10.3473391,17.5999304 10.7261217,17.2503652 C11.1111652,16.8945391 11.5619478,16.7296696 12.0711652,16.7474087 C12.5793391,16.7651478 13.0092522,16.9634087 13.3619478,17.3474087 C13.7136,17.7251478 13.8816,18.1634087 13.8628174,18.6674087" id="Fill-4" fill="#FEFEFE" sketch:type="MSShapeGroup"></path>
                <path d="M13.9238609,4.8861913 C13.9071652,5.33801739 14.0647304,6.29801739 13.6421217,8.86288696 C13.2247304,11.426713 12.8522087,13.7954087 12.623687,14.382887 C12.3607304,15.0663652 11.7169043,15.0663652 11.4737739,14.3411478 C11.2170783,13.5721043 10.4104696,11.2065391 10.1777739,8.6208 C9.95551304,6.03297391 10.1151652,5.19714783 10.1308174,4.74636522 C10.151687,4.2381913 10.3447304,3.80201739 10.7162087,3.47227826 C11.0845565,3.13106087 11.5478609,2.97349565 12.0998609,2.99332174 C12.6518609,3.0141913 13.0984696,3.19888696 13.4428174,3.56410435 C13.7788174,3.92201739 13.9447304,4.3634087 13.9238609,4.8861913" id="Fill-6" fill="#FEFEFE" sketch:type="MSShapeGroup"></path>
            </g>
        </g>
    </g>
</svg>