<?xml version="1.0" encoding="UTF-8" standalone="no"?>
<svg width="24px" height="24px" viewBox="0 0 24 24" version="1.1" xmlns="http://www.w3.org/2000/svg" xmlns:xlink="http://www.w3.org/1999/xlink" xmlns:sketch="http://www.bohemiancoding.com/sketch/ns">
    <!-- Generator: Sketch 3.4.2 (15855) - http://www.bohemiancoding.com/sketch -->
    <title>24x24 normal</title>
    <desc>Created with Sketch.</desc>
    <defs></defs>
    <g id="Page-1" stroke="none" stroke-width="1" fill="none" fill-rule="evenodd" sketch:type="MSPage">
        <g id="24x24-normal" sketch:type="MSArtboardGroup">
            <g id="alert" sketch:type="MSLayerGroup" transform="translate(1.000000, 1.000000)">
                <path d="M21.2975304,10.982687 C21.2975304,16.6692087 16.6870957,21.278687 10.9986609,21.278687 C5.31309565,21.278687 0.70266087,16.6692087 0.70266087,10.982687 C0.70266087,5.2952087 5.31309565,0.684773913 10.9986609,0.684773913 C16.6870957,0.684773913 21.2975304,5.2952087 21.2975304,10.982687 L21.2975304,10.982687 Z" id="Stroke-2" stroke="#221F20" stroke-linecap="round" stroke-linejoin="round" sketch:type="MSShapeGroup"></path>
                <path d="M12.7084435,17.0931391 C12.6912261,17.5551391 12.5085304,17.9406174 12.161313,18.255313 C11.8121826,18.5700087 11.4075739,18.717313 10.9398348,18.7010522 C10.4740087,18.6838348 10.0760957,18.5078348 9.74513913,18.1663565 C9.41992174,17.8277478 9.27357391,17.4298348 9.29174783,16.9687913 C9.30705217,16.5067913 9.4840087,16.1155739 9.83218261,15.7960957 C10.1860957,15.4699217 10.5983565,15.3187913 11.0651391,15.3340957 C11.5300087,15.351313 11.9240957,15.5330522 12.2474,15.8831391 C12.5716609,16.2294 12.7247043,16.6320957 12.7084435,17.0931391 L12.7084435,17.0931391 Z" id="Stroke-4" stroke="#211E20" sketch:type="MSShapeGroup"></path>
                <path d="M12.7626783,4.4617913 C12.7473739,4.8750087 12.8927652,5.75596522 12.5044174,8.10613913 C12.1218087,10.456313 11.7803304,12.6285739 11.5727652,13.1670957 C11.3307652,13.7926609 10.7396348,13.7926609 10.5177217,13.1288348 C10.2833739,12.4248348 9.54302609,10.254487 9.32876522,7.88518261 C9.12598261,5.5130087 9.27137391,4.74683478 9.28667826,4.33361739 C9.3058087,3.86683478 9.48372174,3.46796522 9.82328696,3.16474783 C10.1599826,2.85292174 10.5856348,2.70848696 11.0916348,2.72570435 C11.5966783,2.7457913 12.0060696,2.91509565 12.3217217,3.25083478 C12.6297217,3.57796522 12.7827652,3.98257391 12.7626783,4.4617913 L12.7626783,4.4617913 Z" id="Stroke-6" stroke="#211E20" sketch:type="MSShapeGroup"></path>
            </g>
        </g>
    </g>
</svg>