<?xml version="1.0" encoding="utf-8"?>
<!-- Generator: Adobe Illustrator 16.0.0, SVG Export Plug-In . SVG Version: 6.00 Build 0)  -->
<!DOCTYPE svg PUBLIC "-//W3C//DTD SVG 1.1//EN" "http://www.w3.org/Graphics/SVG/1.1/DTD/svg11.dtd">
<svg version="1.1" id="Layer_3" xmlns="http://www.w3.org/2000/svg" xmlns:xlink="http://www.w3.org/1999/xlink" x="0px" y="0px"
	 width="24px" height="24px" viewBox="0 0 24 24" enable-background="new 0 0 24 24" xml:space="preserve">
<g>
	<path fill-rule="evenodd" clip-rule="evenodd" fill="none" stroke="#000000" stroke-miterlimit="10" d="M19.465,18.839l0.108-0.717
		c0,0-0.032-0.373-0.032-0.607c-0.237-1.807-1.684-2.34-3.248-2.773c-0.607-0.175-2.039-0.405-2.234-0.936
		c-0.257-0.688,0.228-1.16,0.417-1.578c0.247-0.544,0.298-1.215,0.487-1.615c0.152-0.31,0.488-0.424,0.596-0.712
		c0.123-0.326,0.319-0.709,0.348-1.136c0.014-0.209-0.398-0.082-0.452-0.136c0.415-2.612-1.042-4.081-3.214-4.277
		c-0.154,0-0.303,0-0.452,0C9.726,4.598,8.454,6.019,8.745,8.549C8.662,8.729,8.41,8.628,8.349,8.814
		C8.296,9.01,8.508,9.574,8.605,9.828c0.146,0.361,0.516,0.528,0.627,0.785C9.41,11.006,9.448,11.575,9.619,12
		c0.14,0.361,0.573,0.874,0.63,1.126c0.238,1.055-0.668,1.153-1.364,1.35C7.042,14.992,4.978,15.4,4.731,17.55
		c0,0.181,0,0.528,0,0.528l0.114,0.761H19.465z"/>
</g>
<path fill-rule="evenodd" clip-rule="evenodd" fill="none" stroke="#000000" stroke-miterlimit="10" d="M23.224,16.508
	c-0.206-1.551-0.617-2.241-2.498-2.555c-0.532-0.089-0.928-0.111-1.096-0.563c-0.221-0.589,0.197-0.991,0.36-1.351
	c0.21-0.466,0.254-1.039,0.418-1.385c0.127-0.263,0.413-0.364,0.508-0.611c0.107-0.278,0.271-0.607,0.297-0.975
	c0.013-0.177-0.342-0.07-0.387-0.114c0.355-2.242-0.893-3.502-2.754-3.669c-0.133,0-0.259,0-0.389,0
	c-0.497,0.06-1.353,0.276-2.217,1.061l-0.031,0.823c0.072,0.456,0.11,0.937,0.019,1.501c0.054,0.053,0.466-0.07,0.452,0.136
	c-0.028,0.427-0.225,0.81-0.348,1.136c-0.044,0.123-0.143,0.208-0.241,0.298l-0.005,0.259c0.012,0.039,0.024,0.067,0.037,0.086
	c0.075,0.143,0.06-0.124,0.146,0.069c0.114,0.263,0.164,0.618,0.247,0.937c0.025,0.089,0.051,0.175,0.083,0.254
	c0.12,0.307,0.49,0.744,0.537,0.963c0.152,0.664-0.228,0.887-0.677,1.025c-0.158,0.048-0.729,0.374-0.925,0.434
	c0.525,0.253,1.114,0.399,1.532,0.519c1.564,0.432,3.011,0.963,3.248,2.775c0,0.024,0.007,0.06,0.007,0.092l0.076,0.053l3.533-0.063
	l0.092-0.614C23.249,17.027,23.224,16.708,23.224,16.508z"/>
<path fill-rule="evenodd" clip-rule="evenodd" fill="none" stroke="#000000" stroke-miterlimit="10" d="M0.837,16.508
	c0.206-1.551,0.618-2.241,2.498-2.555c0.532-0.089,0.928-0.111,1.096-0.563c0.221-0.589-0.198-0.991-0.361-1.351
	C3.861,11.573,3.817,11,3.652,10.654c-0.126-0.263-0.413-0.364-0.506-0.611C3.038,9.765,2.874,9.436,2.848,9.068
	C2.836,8.891,3.19,8.999,3.234,8.954C2.88,6.712,4.127,5.452,5.989,5.285c0.132,0,0.259,0,0.389,0
	c0.498,0.06,1.354,0.276,2.217,1.061l0.031,0.823c-0.072,0.456-0.11,0.937-0.018,1.501C8.553,8.723,8.142,8.6,8.154,8.806
	c0.028,0.427,0.225,0.81,0.348,1.136c0.044,0.123,0.143,0.208,0.241,0.298l0.005,0.259c-0.011,0.039-0.024,0.067-0.037,0.086
	c-0.076,0.143-0.061-0.124-0.146,0.069c-0.114,0.263-0.165,0.618-0.247,0.937c-0.026,0.089-0.051,0.175-0.083,0.254
	c-0.12,0.307-0.491,0.744-0.538,0.963c-0.153,0.664,0.228,0.887,0.677,1.025c0.158,0.048,0.729,0.374,0.924,0.434
	c-0.525,0.253-1.113,0.399-1.532,0.519c-1.564,0.432-3.01,0.963-3.248,2.775c0,0.024-0.006,0.06-0.006,0.092l-0.076,0.053
	l-3.533-0.063l-0.093-0.614C0.812,17.027,0.837,16.708,0.837,16.508z"/>
</svg>
