<?xml version="1.0" encoding="utf-8"?>
<!-- Generator: Adobe Illustrator 18.0.0, SVG Export Plug-In . SVG Version: 6.00 Build 0)  -->
<!DOCTYPE svg PUBLIC "-//W3C//DTD SVG 1.1//EN" "http://www.w3.org/Graphics/SVG/1.1/DTD/svg11.dtd">
<svg version="1.1" id="Слой_1" xmlns:sketch="http://www.bohemiancoding.com/sketch/ns"
	 xmlns="http://www.w3.org/2000/svg" xmlns:xlink="http://www.w3.org/1999/xlink" x="0px" y="0px" viewBox="0 0 2400 100"
	 enable-background="new 0 0 2400 100" xml:space="preserve">
<title>icons</title>
<desc>Created with Sketch.</desc>
<g id="Page-1" sketch:type="MSPage">
	<g id="icons" sketch:type="MSArtboardGroup">
		<g id="Imported-Layers" transform="translate(25.000000, 2.000000)" sketch:type="MSLayerGroup">
			
				<path id="Stroke-5" sketch:type="MSShapeGroup" fill="none" stroke="#FFFFFF" stroke-width="2" stroke-linecap="round" stroke-linejoin="round" d="
				M1505.7,36c0.8-0.1,10.3-0.2,11-0.3c23.9-3.1,19.1-8.9,24.6-14.5c3.7-3.8,2.6,48.2,0,44.9c-4.9-6.2-0.6-11.5-25-14.5
				c-0.6-0.1-10-0.2-10.6-0.2C1498.8,50.4,1498.8,37,1505.7,36L1505.7,36z M1543.6,40.2L1543.6,40.2c1.8,0,3.2,1.6,3.2,3.7V45
				c0,2-1.4,3.7-3.2,3.7V40.2z M1522.8,34.6v18.1V34.6z M1511.1,73.7c-0.9,0.4-1.4,1.4-1.2,2.5c0.3,1.2,1.5,2,2.7,1.7l9.8-2.7
				c1.2-0.3,2-1.5,1.7-2.7c-0.3-1.2-1.7-2.1-3.4-1.5L1511.1,73.7z M1520.6,71c-1.7-3.4-5.1-10-5-9.9c0.1,0,3.6-0.3,3.7-3.1
				c0.1-2.9-1-5.5-1-5.5s-3.6-0.7-10-0.4c0,0.1-0.7,3.2-0.7,6.8c0.1,3.1,2.6,12,3.5,14.9c0.2-0.1,0.3-0.2,0.5-0.2L1520.6,71
				L1520.6,71z"/>
			<g id="Group" transform="translate(1295.000000, 24.000000)" sketch:type="MSShapeGroup">
				<path id="Path" fill="none" stroke="#FFFFFF" stroke-width="2" stroke-linecap="round" stroke-linejoin="round" d="M51.2,5.3
					c0.5-0.9-0.7-3.2-2.7-4.4c-2.1-1.2-4.3-1.2-4.9,0L29.7,25.8l-3,14.2l10.8-10.1C37.5,29.8,50.7,6.3,51.2,5.3L51.2,5.3z"/>
				<path id="Path_1_" fill="none" stroke="#FFFFFF" stroke-width="2" stroke-linecap="round" stroke-linejoin="round" d="M44,8.9
					c2.3,1.3,2.7,4.4,2.7,4.4C47.2,12.4,46.1,10.1,44,8.9c-2.1-1.1-4.3-1.2-4.9,0C39,8.9,41.7,7.6,44,8.9z"/>
				<path id="Path_2_" fill="none" stroke="#FFFFFF" stroke-width="2" stroke-linecap="round" stroke-linejoin="round" d="
					M34.8,25.2c2.5,2.1,2.7,4.4,2.7,4.4C37.9,28.7,36.8,26.4,34.8,25.2c-2-1.1-4.2-1.2-4.8,0C29.9,25.2,32.2,23.1,34.8,25.2z"/>
				<path id="Path_3_" fill="none" stroke="#FFFFFF" stroke-width="2" stroke-linecap="round" stroke-linejoin="round" d="
					M27.9,34.5l3,1.5L27.9,34.5z"/>
				<path id="Path_4_" fill="none" stroke="#FFFFFF" stroke-width="2" stroke-linecap="round" stroke-linejoin="round" d="
					M27.3,36.4l1.9,1.4L27.3,36.4z"/>
				<path id="Path_5_" fill="none" stroke="#FFFFFF" stroke-width="2" stroke-linecap="round" stroke-linejoin="round" d="M27.1,37
					l1.6,1L27.1,37z"/>
				<path id="Path_6_" fill="none" stroke="#FFFFFF" stroke-width="2" stroke-linecap="round" stroke-linejoin="round" d="
					M54.6,46.1H16.5l-15.7-10h38.1L54.6,46.1L54.6,46.1z"/>
			</g>
			<g id="Group_1_" transform="translate(1406.000000, 26.000000)" sketch:type="MSShapeGroup">
				<path id="Path_7_" fill="none" stroke="#FFFFFF" stroke-width="2" stroke-linecap="round" stroke-linejoin="round" d="M2.5,5.7
					l3.9,42.1h28.1l4-42.1H2.5z"/>
				<path id="Path_8_" fill="none" stroke="#FFFFFF" stroke-width="2" stroke-linecap="round" stroke-linejoin="round" d="M12,10.4
					V41V10.4z"/>
				<path id="Path_9_" fill="none" stroke="#FFFFFF" stroke-width="2" stroke-linecap="round" stroke-linejoin="round" d="
					M20.2,10.4V41V10.4z"/>
				<path id="Path_10_" fill="none" stroke="#FFFFFF" stroke-width="2" stroke-linecap="round" stroke-linejoin="round" d="
					M28.4,10.4V41V10.4z"/>
				<path id="Path_11_" fill="none" stroke="#FFFFFF" stroke-width="2" stroke-linecap="round" stroke-linejoin="round" d="M0.2,5.7
					h42.1H0.2z"/>
				<path id="Path_12_" fill="none" stroke="#FFFFFF" stroke-width="2" stroke-linecap="round" stroke-linejoin="round" d="
					M28.9,2.6c0,1.3-1.4,2.4-3.2,2.4H15.2c-1.8,0-3.2-1.1-3.2-2.4c0-1.3,1.4-2.4,3.2-2.4h10.5C27.4,0.2,28.9,1.2,28.9,2.6L28.9,2.6z
					"/>
			</g>
			
				<path id="Stroke-7" sketch:type="MSShapeGroup" fill="none" stroke="#FFFFFF" stroke-width="2" stroke-linecap="round" stroke-linejoin="round" d="
				M1152.7,68.2h-53.8c-1.9,0-3.5-1.6-3.5-3.6V33.1c0-2,1.6-3.6,3.5-3.6h10.7l0.5-2.5c0.3-1.6,1.5-2.9,2.7-2.9h27.7
				c1.2,0,2.4,1.3,2.6,2.9l0.4,2.4h9.3c1.9,0,3.5,1.6,3.5,3.6v31.6C1156.2,66.6,1154.6,68.2,1152.7,68.2L1152.7,68.2z M1125.8,61.8
				c-8.6,0-15.5-7-15.5-15.7c0-8.6,7-15.7,15.5-15.7c8.6,0,15.5,7,15.5,15.7C1141.3,54.8,1134.3,61.8,1125.8,61.8L1125.8,61.8z
				 M1247,46.4c0,3,2.3,5.4,5.1,5.4c2.8,0,5.1-2.4,5.1-5.4c0-3-2.3-5.4-5.1-5.4C1249.3,41,1247,43.5,1247,46.4L1247,46.4z
				 M1243.5,27.6c-8.5,0-15.5,5.7-17.9,13.4l-3.6-3.6l-10.5,4.8l-5-3l-5.8,2.2l-7.9-2.9l-7.1,8.9l4.5,6.3l36,0.1
				c2.8,6.8,9.5,11.6,17.3,11.6c10.4,0,18.8-8.5,18.8-18.9C1262.3,36.1,1253.8,27.6,1243.5,27.6L1243.5,27.6z"/>
			
				<path id="Stroke-12" sketch:type="MSShapeGroup" fill="none" stroke="#FFFFFF" stroke-width="2" stroke-linecap="round" stroke-linejoin="round" d="
				M925.5,20c-11.9,0-21.5,8.9-21.5,19.9c0,14.6,21.5,39.8,21.5,39.8S947,56.2,947,39.9C947,28.9,937.4,20,925.5,20L925.5,20z
				 M925.2,53.2c-8.3,0-15-6.2-15-14c0-7.7,6.7-13.9,15-13.9c8.3,0,15.1,6.2,15.1,13.9C940.2,47,933.5,53.2,925.2,53.2L925.2,53.2z
				 M925.2,31.9c-4.4,0-7.9,3.3-7.9,7.3c0,4.1,3.5,7.3,7.9,7.3s7.9-3.3,7.9-7.3C933.1,35.2,929.5,31.9,925.2,31.9L925.2,31.9z"/>
			
				<path id="Path_13_" sketch:type="MSShapeGroup" fill="none" stroke="#FFFFFF" stroke-width="2" stroke-linecap="round" stroke-linejoin="round" d="
				M699.3,74.7l4.7-15c-2.7-3.4-4.2-7.4-4.2-11.8c0-11.8,11.3-21.3,25.3-21.3c14,0,25.3,9.5,25.3,21.3c0,11.8-11.3,21.3-25.3,21.3
				c-4.6,0-8.9-1-12.6-2.9L699.3,74.7L699.3,74.7z"/>
			<g id="Stroke-14-_x2B_-Path" transform="translate(991.000000, 21.000000)" sketch:type="MSShapeGroup">
				<path id="Stroke-14" fill="none" stroke="#FFFFFF" stroke-width="2" stroke-linecap="round" stroke-linejoin="round" d="M33.5,0
					L0.1,33.1l26.7,28.4l34-34.8l0.8-26.6L33.5,0L33.5,0z M50.2,15.4c-2.4,0-4.3-2-4.3-4.4c0-2.4,1.9-4.4,4.3-4.4
					c2.4,0,4.3,2,4.3,4.4C54.5,13.4,52.6,15.4,50.2,15.4L50.2,15.4z M42,18.8L19.6,41.4L42,18.8z"/>
				<path id="Path_14_" fill="none" stroke="#FFFFFF" stroke-width="2" stroke-linecap="round" stroke-linejoin="round" d="M40,30.8
					l0.2-0.2c0.7-0.7,1.2-1.5,1.6-2.3c0.3-0.8,0.5-1.7,0.4-2.5c0-0.8-0.2-1.7-0.6-2.4c-0.3-0.7-0.8-1.4-1.4-2L39,20.3
					c-0.6-0.5-1.3-1-2-1.3c-0.8-0.3-1.6-0.5-2.4-0.6h-0.2c-0.7,0-1.5,0.1-2.2,0.4c-0.8,0.3-1.5,0.8-2.1,1.5
					c-0.7,0.8-1.2,1.6-1.5,2.3c-0.2,0.8-0.3,1.5-0.2,2.3c0.1,0.7,0.4,1.5,0.8,2.2l2.3,3.1c0.5,0.7,0.9,1.4,1.3,2.1
					c0.4,0.8,0.7,1.6,0.9,2.4c0.2,0.8,0.1,1.6,0,2.4c-0.2,0.8-0.7,1.6-1.4,2.4c-0.7,0.7-1.5,1.2-2.3,1.5c-0.6,0.2-1.3,0.3-2,0.3
					c-0.2,0-0.4,0-0.6,0c-0.8-0.1-1.7-0.3-2.5-0.7c-0.7-0.4-1.4-0.8-2-1.4l-1.2-1.1c-1.5-1.8-2.3-3.4-2.2-5c0-1.6,0.8-3.3,2.4-5.1
					l0.1-0.2"/>
			</g>
			
				<path id="Path_15_" sketch:type="MSShapeGroup" fill="none" stroke="#FFFFFF" stroke-width="2" stroke-linecap="round" stroke-linejoin="round" d="
				M826.3,34.8c-9.8-13.1-29.4-5.4-29.4,8.8c0,9.6,9.8,16.5,17.2,21.7c7.7,5.4,9.8,6.5,12.3,8.7c2.5-2.2,4.5-3.5,12.3-8.7
				c7.5-5.1,17.2-12.2,17.2-21.8C855.8,29.3,836.2,21.6,826.3,34.8L826.3,34.8z"/>
			
				<path id="Path_16_" sketch:type="MSShapeGroup" fill="none" stroke="#FFFFFF" stroke-width="2" stroke-linecap="round" stroke-linejoin="round" d="
				M1636,66.3c-3.7,1.8-8,2.9-12.6,2.9c-14,0-25.3-9.6-25.3-21.3c0-11.8,11.3-21.3,25.3-21.3c14,0,25.3,9.5,25.3,21.3
				c0,4.4-1.6,8.4-4.2,11.8l4.7,15L1636,66.3L1636,66.3z"/>
			
				<path id="Stroke-19" sketch:type="MSShapeGroup" fill="none" stroke="#FFFFFF" stroke-width="2" stroke-linecap="round" stroke-linejoin="round" d="
				M2205.7,36c0.8-0.1,10.3-0.2,11-0.3c23.9-3.1,19.1-8.9,24.6-14.5c3.7-3.8,2.6,48.2,0,44.9c-4.9-6.2-0.6-11.5-25-14.5
				c-0.6-0.1-10-0.2-10.6-0.2C2198.8,50.4,2198.8,37,2205.7,36L2205.7,36z M2243.6,40.2L2243.6,40.2c1.8,0,3.2,1.6,3.2,3.7V45
				c0,2-1.4,3.7-3.2,3.7V40.2z M2222.8,34.6v18.1V34.6z M2211.1,73.7c-0.9,0.4-1.4,1.4-1.2,2.5c0.3,1.2,1.5,2,2.7,1.7l9.8-2.7
				c1.2-0.3,2-1.5,1.7-2.7c-0.3-1.2-1.7-2.1-3.4-1.5L2211.1,73.7z M2220.6,71c-1.7-3.4-5.1-10-5-9.9c0.1,0,3.6-0.3,3.7-3.1
				c0.1-2.9-1-5.5-1-5.5s-3.6-0.7-10-0.4c0,0.1-0.7,3.2-0.7,6.8c0.1,3.1,2.6,12,3.5,14.9c0.2-0.1,0.3-0.2,0.5-0.2L2220.6,71
				L2220.6,71z"/>
			<g id="Group_2_" transform="translate(2095.000000, 24.000000)" sketch:type="MSShapeGroup">
				<path id="Path_17_" fill="none" stroke="#FFFFFF" stroke-width="2" stroke-linecap="round" stroke-linejoin="round" d="
					M50.8,5.3c0.5-0.9-0.7-3.2-2.7-4.4c-2.1-1.2-4.3-1.2-4.9,0L29.4,25.8l-3,14.2l10.8-10.1C37.2,29.8,50.3,6.3,50.8,5.3L50.8,5.3z"
					/>
				<path id="Path_18_" fill="none" stroke="#FFFFFF" stroke-width="2" stroke-linecap="round" stroke-linejoin="round" d="
					M43.6,8.9c2.7,1.8,2.7,4.4,2.7,4.4C46.9,12.4,45.7,10.1,43.6,8.9c-2.1-1.1-4.3-1.2-4.9,0C38.7,8.9,40.5,6.9,43.6,8.9z"/>
				<path id="Path_19_" fill="none" stroke="#FFFFFF" stroke-width="2" stroke-linecap="round" stroke-linejoin="round" d="
					M34.4,25.2c2.7,1.8,2.7,4.4,2.7,4.4C37.6,28.7,36.5,26.4,34.4,25.2c-2-1.1-4.2-1.2-4.8,0C29.6,25.2,31.8,23.4,34.4,25.2z"/>
				<path id="Path_20_" fill="none" stroke="#FFFFFF" stroke-width="2" stroke-linecap="round" stroke-linejoin="round" d="
					M27.5,34.5l3,1.5L27.5,34.5z"/>
				<path id="Path_21_" fill="none" stroke="#FFFFFF" stroke-width="2" stroke-linecap="round" stroke-linejoin="round" d="
					M26.9,36.4l1.9,1.4L26.9,36.4z"/>
				<path id="Path_22_" fill="none" stroke="#FFFFFF" stroke-width="2" stroke-linecap="round" stroke-linejoin="round" d="M26.8,37
					l1.6,1L26.8,37z"/>
				<path id="Path_23_" fill="none" stroke="#FFFFFF" stroke-width="2" stroke-linecap="round" stroke-linejoin="round" d="
					M16.2,46.1l-15.7-10h38.1l15.7,10H16.2z"/>
			</g>
			
				<path id="Stroke-28" sketch:type="MSShapeGroup" fill="none" stroke="#FFFFFF" stroke-width="2" stroke-linecap="round" stroke-linejoin="round" d="
				M1925.7,20c-11.9,0-21.5,8.9-21.5,19.9c0,14.6,21.5,39.8,21.5,39.8s21.5-23.6,21.5-39.8C1947.2,28.9,1937.6,20,1925.7,20
				L1925.7,20z M1925.3,53.2c-8.3,0-15-6.2-15-14c0-7.7,6.7-13.9,15-13.9c8.3,0,15.1,6.2,15.1,13.9
				C1940.4,47,1933.6,53.2,1925.3,53.2L1925.3,53.2z M1925.3,31.9c-4.4,0-7.9,3.3-7.9,7.3c0,4.1,3.5,7.3,7.9,7.3
				c4.4,0,7.9-3.3,7.9-7.3C1933.2,35.2,1929.7,31.9,1925.3,31.9L1925.3,31.9z"/>
			
				<path id="Path_24_" sketch:type="MSShapeGroup" fill="none" stroke="#FFFFFF" stroke-width="2" stroke-linecap="round" stroke-linejoin="round" d="
				M1699,74.7l4.7-15c-2.7-3.4-4.2-7.4-4.2-11.8c0-11.8,11.3-21.3,25.3-21.3c14,0,25.3,9.5,25.3,21.3c0,11.8-11.3,21.3-25.3,21.3
				c-4.6,0-8.9-1-12.6-2.9L1699,74.7L1699,74.7z"/>
			<g id="Stroke-31-_x2B_-Path-2" transform="translate(1990.000000, 21.000000)" sketch:type="MSShapeGroup">
				<path id="Stroke-31" fill="none" stroke="#FFFFFF" stroke-width="2" stroke-linecap="round" stroke-linejoin="round" d="M34.3,0
					L0.9,33.1l26.7,28.4l34-34.8l0.8-26.6L34.3,0L34.3,0z M50.9,15.4c-2.4,0-4.3-2-4.3-4.4c0-2.4,1.9-4.4,4.3-4.4
					c2.4,0,4.3,2,4.3,4.4C55.3,13.4,53.3,15.4,50.9,15.4L50.9,15.4z M42.8,18.8L20.4,41.4L42.8,18.8z"/>
				<path id="Path-2" fill="none" stroke="#FFFFFF" stroke-width="2" stroke-linecap="round" stroke-linejoin="round" d="M40.5,30.8
					l0.2-0.2c0.7-0.7,1.2-1.5,1.6-2.3c0.3-0.8,0.5-1.7,0.4-2.5c0-0.8-0.2-1.7-0.6-2.4c-0.3-0.7-0.8-1.4-1.4-2l-1.2-1.1
					c-0.6-0.5-1.3-1-2-1.3c-0.8-0.3-1.6-0.5-2.4-0.6H35c-0.7,0-1.5,0.1-2.2,0.4c-0.8,0.3-1.5,0.8-2.1,1.5c-0.7,0.8-1.2,1.6-1.5,2.3
					c-0.2,0.8-0.3,1.5-0.2,2.3c0.1,0.7,0.4,1.5,0.8,2.2l2.3,3.1c0.5,0.7,0.9,1.4,1.3,2.1c0.4,0.8,0.7,1.6,0.9,2.4
					c0.2,0.8,0.1,1.6,0,2.4c-0.2,0.8-0.7,1.6-1.4,2.4c-0.7,0.7-1.5,1.2-2.3,1.5c-0.6,0.2-1.3,0.3-2,0.3c-0.2,0-0.4,0-0.6,0
					c-0.8-0.1-1.7-0.3-2.5-0.7c-0.7-0.4-1.4-0.8-2-1.4l-1.2-1.1c-1.5-1.8-2.3-3.4-2.2-5c0-1.6,0.8-3.3,2.4-5.1l0.1-0.2"/>
			</g>
			
				<path id="Path_25_" sketch:type="MSShapeGroup" fill="none" stroke="#FFFFFF" stroke-width="2" stroke-linecap="round" stroke-linejoin="round" d="
				M1826.1,34.8c-9.8-13.1-29.4-5.4-29.4,8.8c0,9.6,9.8,16.5,17.2,21.7c7.7,5.4,9.8,6.5,12.3,8.7c2.5-2.2,4.5-3.5,12.3-8.7
				c7.5-5.1,17.2-12.2,17.2-21.8C1855.6,29.3,1835.9,21.6,1826.1,34.8L1826.1,34.8z"/>
			
				<path id="Path_26_" sketch:type="MSShapeGroup" fill="none" stroke="#FFFFFF" stroke-width="2" stroke-linecap="round" stroke-linejoin="round" d="
				M2336,66.3c-3.7,1.8-8,2.9-12.6,2.9c-14,0-25.3-9.6-25.3-21.3c0-11.8,11.3-21.3,25.3-21.3c14,0,25.3,9.5,25.3,21.3
				c0,4.4-1.6,8.4-4.2,11.8l4.7,15L2336,66.3L2336,66.3z"/>
			<path id="Fill-32" sketch:type="MSShapeGroup" fill="#2BAC6E" stroke="#FFFFFF" stroke-miterlimit="10" d="M624.2,60.3
				c-1.1,1.4-3.2,1.6-4.5,0.5l-13.3-11c-1.4-1.1-1.6-3.2-0.4-4.6c1.1-1.4,3.1-1.6,4.5-0.5l13.3,11C625.1,56.9,625.3,59,624.2,60.3"
				/>
			<path id="Fill-33" sketch:type="MSShapeGroup" fill="#2BAC6E" stroke="#FFFFFF" stroke-miterlimit="10" d="M620.3,61.1
				c-1.4-1.1-1.6-3.2-0.5-4.6l19-20.2c1.1-1.4,3.1-1.6,4.5-0.5c1.4,1.1,1.6,3.2,0.5,4.6l-19,20.2C623.7,62.1,621.7,62.3,620.3,61.1"
				/>
			<path id="Fill-34" sketch:type="MSShapeGroup" fill="#F2AA5B" stroke="#FFFFFF" stroke-miterlimit="10" d="M325.3,26.5
				c-8.7,0-15.8,6.5-15.8,14.6c0,10.7,15.8,29.2,15.8,29.2s15.8-17.3,15.8-29.2C341.1,33.1,334,26.5,325.3,26.5L325.3,26.5z
				 M325,50.9c-6.1,0-11-4.6-11-10.2c0-5.6,4.9-10.2,11-10.2s11,4.6,11,10.2C336.1,46.3,331.1,50.9,325,50.9L325,50.9z M325,35.3
				c-3.2,0-5.8,2.4-5.8,5.4c0,3,2.6,5.4,5.8,5.4c3.2,0,5.8-2.4,5.8-5.4C330.8,37.7,328.2,35.3,325,35.3"/>
			<path id="Fill-36" sketch:type="MSShapeGroup" fill="#E47170" stroke="#FFFFFF" stroke-miterlimit="10" d="M24.2,38.1
				c-8-10.8-24.1-4.5-24.1,7.2c0,7.9,8,13.5,14,17.8c6.3,4.4,8.1,5.4,10,7.1c2-1.8,3.7-2.8,10.1-7.1c6.1-4.2,14.1-10,14.1-17.9
				C48.3,33.6,32.2,27.3,24.2,38.1"/>
			<path id="Fill-37" sketch:type="MSShapeGroup" fill="#4AB1D8" stroke="#FFFFFF" stroke-miterlimit="10" d="M102.6,71.8l4.1-12.9
				c-2.3-2.9-3.6-6.3-3.6-10.1c0-10.1,9.7-18.2,21.6-18.2c12,0,21.7,8.2,21.7,18.2c0,10.1-9.7,18.3-21.7,18.3
				c-3.9,0-7.6-0.9-10.8-2.4L102.6,71.8"/>
			<path id="Fill-38" sketch:type="MSShapeGroup" fill="#E47170" stroke="#FFFFFF" stroke-miterlimit="10" d="M523.5,67.1
				c-12,0-21.7-8.2-21.7-18.3c0-10.1,9.7-18.2,21.7-18.2c11.9,0,21.6,8.2,21.6,18.2c0,3.7-1.3,7.2-3.6,10.1l4.1,12.9l-11.3-7.1
				C531.1,66.2,527.4,67.1,523.5,67.1z"/>
			<path id="Fill-39" sketch:type="MSShapeGroup" fill="#A3C93B" stroke="#FFFFFF" stroke-miterlimit="10" d="M226.3,33.7L203.2,52
				l17.4,21.8l23.6-19.5l2.7-18.2L226.3,33.7L226.3,33.7z M237.3,45.6c-1.8-0.2-3-1.7-2.8-3.4c0.2-1.7,1.8-2.8,3.5-2.6
				c1.8,0.2,3,1.7,2.8,3.4C240.6,44.7,239.1,45.8,237.3,45.6L237.3,45.6z"/>
			<path id="Fill-40" sketch:type="MSShapeGroup" fill="#E47170" stroke="#FFFFFF" stroke-miterlimit="10" d="M405.3,69.8h28.3V43.9
				h-28.3V69.8z M415.2,48h9.8v2.6h-9.8V48z"/>
			<path id="Fill-41" sketch:type="MSShapeGroup" fill="#E47170" stroke="#FFFFFF" stroke-miterlimit="10" d="M440.9,60.8l-5.3,7.7
				V43.9l5.3-7.3V60.8"/>
			<path id="Fill-42" sketch:type="MSShapeGroup" fill="#E47170" stroke="#FFFFFF" stroke-miterlimit="10" d="M412.7,33.8l-6,7.8
				H420l5.9-7.8H412.7"/>
			<path id="Fill-43" sketch:type="MSShapeGroup" fill="#E47170" stroke="#FFFFFF" stroke-miterlimit="10" d="M428.4,33.8l-5.9,7.8
				h11.9l5.9-7.8H428.4"/>
		</g>
		<g id="alert" transform="translate(524.000000, 28.000000)" sketch:type="MSLayerGroup">
			<path id="Fill-1" sketch:type="MSShapeGroup" fill="#E47170" stroke="#FFFFFF" stroke-miterlimit="10" d="M27.5,0.1
				c15.1,0,27.4,12.3,27.4,27.4c0,15.1-12.3,27.4-27.4,27.4S0.1,42.6,0.1,27.5C0.1,12.3,12.4,0.1,27.5,0.1z"/>
			<path id="Stroke-3" sketch:type="MSShapeGroup" fill="none" stroke="#FFFFFF" stroke-miterlimit="10" d="M0.1,27.5
				c0-15.1,12.3-27.4,27.4-27.4s27.4,12.3,27.4,27.4c0,15.1-12.3,27.4-27.4,27.4S0.1,42.6,0.1,27.5L0.1,27.5z"/>
			<path id="Fill-5" sketch:type="MSShapeGroup" fill="#FEFEFE" stroke="#FFFFFF" stroke-miterlimit="10" d="M23.1,45.2
				c0-1.2,0.4-2.2,1.3-3c0.8-0.8,1.9-1.3,3-1.3c1.2,0,2.2,0.4,3,1.3c0.8,0.8,1.3,1.9,1.3,3c0,1.2-0.4,2.2-1.3,3
				c-0.8,0.8-1.9,1.3-3,1.3c-1.2,0-2.2-0.4-3-1.3C23.5,47.4,23.1,46.4,23.1,45.2"/>
			<path id="Fill-7" sketch:type="MSShapeGroup" fill="#FEFEFE" stroke="#FFFFFF" stroke-miterlimit="10" d="M27.3,38.2
				c-1.9,0-2.9-0.9-3-2.6l-1.6-20.3v-4.1c0-1.3,0.4-2.4,1.3-3.3c0.9-0.9,2-1.3,3.3-1.3c1.3,0,2.4,0.4,3.2,1.3c0.9,0.9,1.3,2,1.3,3.3
				v4.1l-1.6,20.3C30.1,37.3,29.2,38.2,27.3,38.2"/>
		</g>
	</g>
</g>
</svg>
