<?xml version="1.0" encoding="utf-8"?>
<!-- Generator: Adobe Illustrator 16.0.0, SVG Export Plug-In . SVG Version: 6.00 Build 0)  -->
<!DOCTYPE svg PUBLIC "-//W3C//DTD SVG 1.1//EN" "http://www.w3.org/Graphics/SVG/1.1/DTD/svg11.dtd">
<svg version="1.1" id="Layer_1" xmlns="http://www.w3.org/2000/svg" xmlns:xlink="http://www.w3.org/1999/xlink" x="0px" y="0px"
	 width="2040.939px" height="2040.939px" viewBox="0 0 2040.939 2040.939" enable-background="new 0 0 2040.939 2040.939"
	 xml:space="preserve">
<linearGradient id="SVGID_1_" gradientUnits="userSpaceOnUse" x1="1778.6348" y1="5.3188" x2="269.3079" y2="2025.2589">
	<stop  offset="0.0242" style="stop-color:#ED0C6E"/>
	<stop  offset="0.3348" style="stop-color:#E75D66"/>
	<stop  offset="0.6477" style="stop-color:#EE6F67"/>
	<stop  offset="0.8619" style="stop-color:#F17668"/>
	<stop  offset="1" style="stop-color:#F38D6E"/>
</linearGradient>
<path fill="url(#SVGID_1_)" d="M2039.207,1640.779c0,220.039-178.384,398.423-398.422,398.423H399.665
	c-219.942,0-398.325-178.384-398.325-398.423V399.711C1.34,179.666,179.723,1.283,399.665,1.283h1241.12
	c220.038,0,398.422,178.383,398.422,398.428V1640.779z"/>
<path fill="#FFFFFF" d="M1751.264,437.284l-311.734,35.942l-251.082-206.205c-4.09-2.963-7.047-5.312-10.624-7.713
	c-2.957-49.419-42.374-89.547-92.505-89.547c-51.871,0-94.245,42.425-94.245,94.297c0,1.177,1.734,2.349,1.734,3.474
	c-82.502,60.755-395.465,306.422-395.465,306.422l-392.501,44.826l83.73,1041.398l1588.797-172.05L1751.264,437.284z
	 M483.085,816.716c-47.789,5.92-90.777-27.622-96.697-73.566c-5.92-46.003,28.385-87.762,76.582-93.682
	c14.196-1.229,28.385,1.171,41.254,5.92l-24.102,24.658c-12.966,13.633-12.352,34.208,0.615,46.611
	c7.046,6.483,15.315,9.447,24.095,9.447c8.883,0,17.767-4.187,24.199-10.669l11.743-11.795c5.312-2.963,10.113-6.431,13.581-10.565
	c1.74,6.431,4.083,12.914,5.312,20.012C565.587,769.134,530.771,811.507,483.085,816.716z M722.321,558.69l310-222.187
	c15.314,11.181,32.37,21.85,52.997,21.85c23.584,0,44.211-10.669,60.651-25.324c2.349,1.688,4.697,2.86,7.144,4.697l187.37,147.294
	L722.321,558.69z M1517.23,687.751c-44.107,5.312-84.747-25.933-90.162-70.143c-2.35-15.315,0.614-28.844,6.534-41.306
	l18.278,17.107c17.056,8.883,34.208,4.083,45.951-8.172c10.722-11.284,11.744-27.77,3.572-40.077
	c-1.223-8.883-8.27-9.395-15.315-14.752c3.475-1.178,7.046-2.963,11.743-3.578c44.826-5.254,84.851,25.939,90.163,70.661
	C1593.812,642.318,1561.447,682.395,1517.23,687.751z"/>
<linearGradient id="SVGID_2_" gradientUnits="userSpaceOnUse" x1="1931.4111" y1="196.2988" x2="149.4375" y2="2004.7611">
	<stop  offset="0.0242" style="stop-color:#ED0C6E"/>
	<stop  offset="0.3348" style="stop-color:#E75D66"/>
	<stop  offset="0.6477" style="stop-color:#EE6F67"/>
	<stop  offset="0.8619" style="stop-color:#F17668"/>
	<stop  offset="1" style="stop-color:#F38D6E"/>
</linearGradient>
<path fill="url(#SVGID_2_)" d="M512.492,863.786c-25.628,3.882-46.152,19.249-46.152,19.249
	c-8.373-7.046-11.537-12.151-26.858-14.144c-74.537,30.177-131.002,214.939-112.316,345.793
	c15.93,109.56,82.094,232.805,203.294,215.445c167.358-24.406,166.129-305.918,151.325-404.038
	C668.308,929.239,626.646,847.093,512.492,863.786z M497.074,1379.384c-57.08,8.372-96.898-53.916-109.049-137.848
	c-15.418-107.011,14.085-181.496,13.478-180.784c7.046,3.779,26.34,8.172,33.283,6.994c2.044,0,2.556-0.66,2.044-1.326
	c5.208-64.683,28.184-153.926,103.232-164.136c41.047-6.38,63.512,37.165,69.943,82.708
	C618.992,1047.223,633.692,1359.572,497.074,1379.384z M906.527,829.125c-26.961,4.238-58.71,27.667-83.524,71.78l-0.718-20.679
	c-0.711-10.313-38.595-26.191-61.978-23.435c-27.569,4.135-24.917,203.501-12.455,319.292
	c-4.186,175.115-10.417,338.592,2.038,343.393c19.301,8.269,63.408,11.736,69.639,9.698c6.942-2.147,9.699-2.147,9.699-15.826
	c0.615-39.312-6.225-129.675-6.943-204.219l-0.711-19.908c21.442,38.595,55.236,64.022,105.581,56.465
	c131.002-18.582,137.841-244.755,126.816-347.527C1043.042,901.618,1013.331,814.063,906.527,829.125z M899.481,1283.605
	c-41.357,6.127-66.165-49.012-74.44-119.874c-2.756-31.044,0-61.473,0-61.473c6.943,3.475,26.243,8.275,26.243,4.904
	c2.756-54.524,26.858-223.461,85.465-231.685c40.64-6.276,44.107,60.652,46.967,87.561
	C989.236,1018.126,994.03,1269.921,899.481,1283.605z M1375.403,1082.965c-15.212,2.704-13.781,12.402-13.781,12.402
	c8.884,59.378-24.813,177.213-106.299,188.95c-54.421,8.275-85.459-33.187-92.304-64.838
	c-15.212-72.292-5.513-117.829-5.513-117.829s21.338,35.941,66.778,28.896c83.524-11.743,105.581-121.354,89.037-236.531
	c-11.744-82.708-62.082-102.773-102.825-97.26c-93.119,13.07-133.654,259.3-112.315,409.046
	c16.44,112.316,88.221,163.373,169.706,151.629c117.117-16.544,155.712-157.245,144.687-235.152
	C1408.485,1096.694,1392.556,1080.92,1375.403,1082.965z M1205.703,874.714c8.269-11.743,20.827-17.922,24.812-18.531
	c5.617-0.821,13.07,2.705,18.583,40.64c11.743,82.754-17.871,177.866-55.14,183.333c-21.338,2.809-29.613-18.582-29.613-18.582
	C1166.39,994.077,1176.807,916.835,1205.703,874.714z M1795.274,1158.827c-8.884,40.024-28.896,64.941-72.299,82.812
	c-67.594,28.281-102.002-51.16-112.517-124.163c-5.519-38.646-11.64-117.272-7.453-164.751l6.942-64.941
	c-22.872,35.89-105.581,132.38-62.903,381.321c0,0-11.64,15.212-34.408,18.789c-47.582,6.943-66.979-40.03-77.293-108.337
	c-27.57-191.757-25.532-376.572,38.595-385.507c13.173-2.097,37.883-3.475,37.883,19.294c-0.615,88.273-12.358,78.626-7.454,175.116
	v6.943c17.871-89.6,46.864-145.554,102.824-241.332c4.698-8.217,12.352-10.411,22.051-11.737
	c28.896-4.141,79.952,5.513,80.464,34.409c5.001,93.171-34.312,218-17.056,337.259c6.03,46.256,17.87,70.965,46.87,62.696
	c13.788-3.371,24.095-13.788,28.896-38.595C1768.416,1138.104,1800.172,1136.771,1795.274,1158.827z"/>
</svg>
