<?xml version="1.0" encoding="utf-8"?>
<!-- Generator: Adobe Illustrator 16.0.0, SVG Export Plug-In . SVG Version: 6.00 Build 0)  -->
<!DOCTYPE svg PUBLIC "-//W3C//DTD SVG 1.1//EN" "http://www.w3.org/Graphics/SVG/1.1/DTD/svg11.dtd">
<svg version="1.1" id="Layer_3" xmlns="http://www.w3.org/2000/svg" xmlns:xlink="http://www.w3.org/1999/xlink" x="0px" y="0px"
	 width="24px" height="24px" viewBox="0 0 24 24" enable-background="new 0 0 24 24" xml:space="preserve">
<path fill="none" stroke="#000000" stroke-miterlimit="10" d="M3.216,19.643c0-2.42,0-4.838,0-7.255
	c0.203-0.026,0.399-0.047,0.591-0.094c0.591-0.127,1.009-0.503,1.268-1.006c0.641-1.243,1.588-2.224,2.517-3.239
	c1.152-1.27,2.18-2.63,2.918-4.183c0.246-0.503,0.42-1.052,0.58-1.591c0.282-0.943,0.86-1.187,1.684-0.658
	c0.766,0.492,1.053,1.233,0.992,2.114C13.709,4.54,13.4,5.276,13.088,6.007c-0.256,0.594-0.504,1.191-0.732,1.793
	c-0.067,0.182-0.08,0.389-0.085,0.586c-0.03,0.896,0.493,1.397,1.377,1.307c0.691-0.076,1.385-0.188,2.08-0.255
	c1.01-0.098,2.018-0.194,3.035-0.262c0.406-0.027,0.799,0.055,1.162,0.26c0.412,0.23,0.645,0.577,0.609,1.044
	c-0.031,0.368-0.121,0.747-0.252,1.094c-0.146,0.425-0.143,0.497,0.283,0.658c0.326,0.13,0.641,0.254,0.807,0.591
	c0.309,0.591,0.104,1.429-0.426,1.819c-0.111,0.077-0.221,0.145-0.326,0.23c-0.172,0.138-0.18,0.267-0.018,0.438
	c0.141,0.146,0.309,0.268,0.461,0.409c0.492,0.465,0.67,1.4-0.148,1.947c-0.184,0.111-0.363,0.225-0.533,0.345
	c-0.285,0.207-0.322,0.367-0.143,0.679c0.043,0.083,0.104,0.177,0.152,0.27c0.264,0.482,0.219,0.853-0.166,1.247
	c-0.404,0.4-0.896,0.642-1.42,0.826c-1.061,0.383-2.166,0.539-3.289,0.583c-1.967,0.075-3.936,0.028-5.895-0.288
	c-0.972-0.155-1.926-0.419-2.849-0.806c-0.72-0.298-1.435-0.627-2.21-0.741C4.125,19.716,3.678,19.695,3.216,19.643z"/>
</svg>
